<svg id="achat-icon" xmlns="http://www.w3.org/2000/svg" width="152.509" height="129.048" viewBox="0 0 152.509 129.048">
  <path id="Tracé_252" data-name="Tracé 252" d="M365.446,377.184a11.735,11.735,0,1,0,3.438-8.3A11.3,11.3,0,0,0,365.446,377.184Z" transform="translate(-248.132 -259.868)" fill="#28a601"/>
  <path id="Tracé_253" data-name="Tracé 253" d="M150.767,50.015a5.637,5.637,0,0,0-4.124-1.742H36.569q-.093-.641-.413-2.336t-.5-2.7a16.168,16.168,0,0,0-.688-2.427,7.308,7.308,0,0,0-1.191-2.246,5.849,5.849,0,0,0-1.832-1.422,5.594,5.594,0,0,0-2.612-.595H5.867a5.642,5.642,0,0,0-4.125,1.741,5.754,5.754,0,0,0,0,8.249,5.639,5.639,0,0,0,4.125,1.741H24.562l16.222,75.431q-.182.366-1.879,3.482t-2.7,5.453a10.065,10.065,0,0,0-1.008,3.621,5.945,5.945,0,0,0,5.867,5.867h93.848a5.867,5.867,0,0,0,0-11.733H50.591q2.2-4.4,2.2-5.864a9.9,9.9,0,0,0-.23-2.017q-.23-1.1-.55-2.43t-.412-1.969l95.687-11.181a5.691,5.691,0,0,0,3.757-1.971,5.775,5.775,0,0,0,1.465-3.895V54.141A5.642,5.642,0,0,0,150.767,50.015Z" transform="translate(0 -36.543)" fill="#28a601"/>
  <path id="Tracé_254" data-name="Tracé 254" d="M109.632,377.184a11.733,11.733,0,1,0,3.437-8.3A11.293,11.293,0,0,0,109.632,377.184Z" transform="translate(-74.438 -259.868)" fill="#28a601"/>
</svg>
