<svg xmlns="http://www.w3.org/2000/svg" viewBox="0 0 467 933" width="467" height="933">
	<style>
		tspan { white-space:pre }
		.shp0 { fill: #28a601 } 
		.shp1 { fill: #e1f3be } 
		.shp2 { fill: #a7e232 } 
	</style>
	<g id="Background">
		<path id="Path 0" class="shp0" d="M429 1.15C424.32 1.63 414.87 2.72 408 3.57C401.12 4.42 389.42 6.23 382 7.6C374.57 8.96 361.3 11.87 352.5 14.07C343.7 16.27 331.32 19.67 325 21.64C318.67 23.6 306.07 28.13 297 31.7C287.92 35.28 273.52 41.55 265 45.65C256.47 49.75 244.55 55.86 238.5 59.23C232.45 62.6 222.55 68.51 216.5 72.37C210.45 76.22 201.67 82.08 197 85.39C192.32 88.7 184.22 94.78 179 98.91C173.77 103.03 164.55 110.77 158.5 116.11C152.45 121.45 141.39 132.05 133.93 139.66C126.47 147.27 117.21 157.1 113.36 161.5C109.52 165.9 102.81 174 98.46 179.5C94.11 185 85.57 196.92 79.49 206C73.41 215.07 65.47 227.67 61.85 234C58.22 240.32 52.66 250.67 49.49 257C46.32 263.32 42.16 272.1 40.24 276.5C38.33 280.9 34.63 289.9 32.01 296.5C29.4 303.1 25.21 314.8 22.7 322.5C20.19 330.2 16.8 341.67 15.16 348C13.52 354.32 10.8 366.25 9.12 374.5C7.44 382.75 5.16 396.47 4.05 405C2.94 413.52 1.58 426.35 1.01 433.5C0.45 440.65 0 455.72 0.01 467C0.02 478.27 0.7 495.15 1.53 504.5C2.36 513.85 3.95 527.8 5.07 535.5C6.18 543.2 8.62 556.47 10.47 565C12.33 573.52 15.02 584.77 16.47 590C17.91 595.22 20.7 604.45 22.68 610.5C24.65 616.55 28.04 626.22 30.21 632C32.38 637.77 36.43 647.67 39.22 654C42 660.32 46.74 670.45 49.76 676.5C52.78 682.55 57.95 692.22 61.26 698C64.56 703.77 71.87 715.47 77.49 724C83.12 732.52 91.91 744.9 97.02 751.5C102.14 758.1 109.22 766.87 112.76 771C116.3 775.12 125.57 784.97 133.35 792.87C141.13 800.77 152.45 811.59 158.5 816.9C164.55 822.21 173.55 829.73 178.5 833.6C183.45 837.47 191.55 843.56 196.5 847.14C201.45 850.72 210 856.51 215.5 860.01C221 863.51 229.32 868.59 234 871.29C238.67 874 248.69 879.32 256.25 883.11C263.81 886.9 276.19 892.65 283.75 895.89C291.31 899.13 305.6 904.55 315.5 907.93C325.4 911.32 339.35 915.63 346.5 917.51C353.65 919.39 366.25 922.28 374.5 923.92C382.75 925.56 394.22 927.58 400 928.41C405.77 929.24 417.47 930.61 426 931.46C434.52 932.3 447.01 932.99 453.75 933L466 933L466 874C455.54 874.01 443.72 873.31 433 872.45C422.27 871.59 406.97 869.77 399 868.41C391.02 867.05 377.3 864.17 368.5 862.02C359.7 859.86 344.4 855.32 334.5 851.93C324.6 848.54 311.77 843.75 306 841.28C300.22 838.81 288.97 833.49 281 829.45C273.02 825.42 260.42 818.37 253 813.8C245.57 809.23 234.55 801.94 228.5 797.61C222.45 793.27 213.45 786.46 208.5 782.46C203.55 778.47 194.55 770.66 188.5 765.1C182.45 759.55 172.85 749.94 167.16 743.75C161.48 737.56 152.67 727.32 147.6 721C142.52 714.67 135.68 705.67 132.4 701C129.12 696.32 123.92 688.45 120.85 683.5C117.78 678.55 113.46 671.35 111.26 667.5C109.05 663.65 104.53 655.1 101.21 648.5C97.88 641.9 93.96 633.8 92.49 630.5C91.02 627.2 88.23 620.45 86.3 615.5C84.37 610.55 81.47 602.67 79.86 598C78.25 593.32 75.42 584.1 73.57 577.5C71.72 570.9 69.29 561.45 68.17 556.5C67.04 551.55 65.22 542.32 64.12 536C63.02 529.67 61.64 520.45 61.06 515.5C60.47 510.55 59.54 500.65 58.99 493.5C58.44 486.35 58 473.75 58 465.5C58.01 457.25 58.67 443.07 59.47 434C60.27 424.92 61.41 414.12 61.99 410C62.57 405.87 63.74 398.67 64.59 394C65.44 389.32 67.05 381.45 68.17 376.5C69.3 371.55 71.72 362.1 73.57 355.5C75.42 348.9 78.24 339.67 79.85 335C81.46 330.32 84.7 321.55 87.06 315.5C89.42 309.45 96.12 295.05 101.94 283.5C107.77 271.95 115.65 257.55 119.47 251.5C123.28 245.45 129.1 236.67 132.4 232C135.7 227.32 142.53 218.32 147.58 212C152.64 205.67 160.66 196.22 165.42 191C170.18 185.77 177.31 178.44 181.28 174.7C185.25 170.96 193 163.97 198.5 159.15C204 154.34 212.32 147.46 217 143.86C221.67 140.26 230.45 133.93 236.5 129.8C242.55 125.66 252.22 119.44 258 115.97C263.77 112.5 275.92 106.01 285 101.55C294.07 97.09 308.47 90.68 317 87.3C325.52 83.92 339.25 79.14 347.5 76.69C355.75 74.23 368.57 70.84 376 69.15C383.42 67.46 397.37 64.96 407 63.6C416.62 62.23 430.8 60.64 438.5 60.06C446.2 59.48 455.54 59 459.25 59L466 59L466 0C443.91 0.21 433.67 0.66 429 1.15Z" />
		<path id="Path 1" class="shp1" d="M436.5 60.13C430.45 60.6 417.4 62.13 407.5 63.53C397.6 64.93 383.42 67.46 376 69.15C368.57 70.84 355.75 74.23 347.5 76.69C339.25 79.14 325.52 83.92 317 87.3C308.47 90.68 294.07 97.09 285 101.55C275.92 106.01 263.77 112.5 258 115.97C252.22 119.44 242.55 125.66 236.5 129.8C230.45 133.93 221.67 140.26 217 143.86C212.32 147.46 204 154.34 198.5 159.15C193 163.97 185.25 170.96 181.28 174.7C177.31 178.44 170.18 185.77 165.42 191C160.66 196.22 152.64 205.67 147.58 212C142.53 218.32 135.7 227.32 132.4 232C129.1 236.67 123.28 245.45 119.47 251.5C115.65 257.55 107.77 271.95 101.94 283.5C96.12 295.05 89.42 309.45 87.06 315.5C84.7 321.55 81.46 330.32 79.85 335C78.24 339.67 75.42 348.9 73.57 355.5C71.72 362.1 69.3 371.55 68.17 376.5C67.05 381.45 65.44 389.32 64.59 394C63.74 398.67 62.57 405.87 61.99 410C61.41 414.12 60.27 424.92 59.47 434C58.67 443.07 58.01 457.25 58 465.5C58 473.75 58.44 486.35 58.99 493.5C59.54 500.65 60.47 510.55 61.06 515.5C61.64 520.45 63.02 529.67 64.12 536C65.22 542.32 67.04 551.55 68.17 556.5C69.29 561.45 71.72 570.9 73.57 577.5C75.42 584.1 78.25 593.32 79.86 598C81.47 602.67 84.37 610.55 86.3 615.5C88.23 620.45 91.02 627.2 92.49 630.5C93.96 633.8 97.88 641.9 101.21 648.5C104.53 655.1 109.05 663.65 111.26 667.5C113.46 671.35 117.78 678.55 120.85 683.5C123.92 688.45 129.12 696.32 132.4 701C135.68 705.67 142.52 714.67 147.6 721C152.67 727.32 161.48 737.56 167.16 743.75C172.85 749.94 182.45 759.55 188.5 765.1C194.55 770.66 203.55 778.47 208.5 782.46C213.45 786.46 222.45 793.27 228.5 797.61C234.55 801.94 245.57 809.23 253 813.8C260.42 818.37 273.02 825.42 281 829.45C288.97 833.49 300.22 838.81 306 841.28C311.77 843.75 324.6 848.54 334.5 851.93C344.4 855.32 359.7 859.86 368.5 862.02C377.3 864.17 391.02 867.05 399 868.41C406.97 869.77 422.27 871.59 433 872.45C443.72 873.31 455.54 874.01 459.25 874.01L466 874L466 829C450.89 828.98 438.62 828.08 429 826.99C419.37 825.89 408.8 824.52 405.5 823.94C402.2 823.37 394.55 821.75 388.5 820.36C382.45 818.96 372.1 816.24 365.5 814.3C358.9 812.36 347.42 808.38 340 805.46C332.57 802.53 321.77 797.95 316 795.27C310.22 792.59 305.18 789.97 304.79 789.45C304.4 788.93 314.11 770.95 326.37 749.5C338.64 728.05 373.32 668.42 403.44 617C433.56 565.57 459.96 520.69 462.1 517.25L466 511L466 427C341.35 208.06 304.88 143.82 304.53 143C304.05 141.85 307.26 139.92 318.2 134.78C326.07 131.09 339.47 125.53 348 122.42C356.52 119.32 370.47 115.03 379 112.88C387.52 110.73 399.22 108.1 405 107.02C410.77 105.94 422.47 104.36 431 103.52C439.52 102.68 450.89 101.99 456.25 101.99L466 102L466 59C451.66 59.22 442.55 59.66 436.5 60.13Z" />
		<path id="Path 2" class="shp2" d="M429 103.63C421.57 104.4 410.77 105.92 405 107C399.22 108.09 387.52 110.73 379 112.88C370.47 115.03 356.52 119.32 348 122.42C339.47 125.53 326.07 131.09 318.2 134.78C307.26 139.92 304.05 141.85 304.53 143C304.88 143.82 340.97 207.5 384.74 284.5C428.51 361.5 464.7 424.95 465.17 425.5C465.65 426.06 466.03 354.71 466.02 264.25L466 102C447.79 102.18 436.42 102.86 429 103.63ZM259.96 172.66C253.1 177.44 242.32 185.64 236 190.89C229.67 196.13 218.87 206.06 212 212.96C205.12 219.86 195.63 230.23 190.91 236C186.18 241.78 179.4 250.55 175.83 255.5C172.27 260.45 166.5 269 163.02 274.5C159.54 280 153.92 289.67 150.52 296C147.13 302.32 142.21 312.22 139.58 318C136.96 323.77 132.88 333.67 130.52 340C128.16 346.32 124.85 356 123.15 361.5C121.46 367 118.91 376.45 117.48 382.5C116.05 388.55 114.01 398.67 112.94 405C111.86 411.32 110.33 423.7 109.53 432.5C108.72 441.3 108.16 448.56 108.28 448.62C108.4 448.69 183.2 449.25 274.5 449.86C365.8 450.47 440.59 450.87 440.7 450.74C440.8 450.61 403.31 386.37 357.38 308C311.45 229.62 273.55 165.15 273.14 164.73C272.74 164.31 266.81 167.87 259.96 172.66ZM255.5 488.54C175.2 489.2 109.39 489.8 109.25 489.87C109.11 489.94 109 492.81 109.01 496.25C109.01 499.69 109.46 506.55 110 511.5C110.55 516.45 111.69 525 112.55 530.5C113.41 536 115.26 545.67 116.66 552C118.07 558.32 120.95 569.35 123.08 576.5C125.21 583.65 129.24 595.35 132.03 602.5C134.83 609.65 140.42 622.25 144.47 630.5C148.52 638.75 155.39 651.35 159.73 658.5C164.08 665.65 171.16 676.45 175.48 682.5C179.8 688.55 186.66 697.55 190.74 702.5C194.81 707.45 203.63 717.07 210.32 723.87C217.02 730.68 227.45 740.39 233.5 745.46C239.55 750.53 249.45 758.25 255.5 762.62C261.55 766.98 267.85 771.37 269.5 772.37C271.99 773.88 272.69 773.96 273.64 772.84C274.26 772.1 312.18 707.6 357.91 629.5C403.63 551.4 441.04 487.39 441.02 487.25C441.01 487.11 432.11 487.07 421.25 487.17C410.39 487.26 335.8 487.88 255.5 488.54ZM461.68 517.75C459.79 520.91 433.59 565.57 403.46 617C373.32 668.42 338.64 728.05 326.37 749.5C314.11 770.95 304.4 788.93 304.79 789.45C305.18 789.97 310.22 792.59 316 795.27C321.77 797.95 332.57 802.53 340 805.46C347.42 808.38 358.9 812.36 365.5 814.3C372.1 816.24 382.45 818.96 388.5 820.36C394.55 821.75 402.2 823.37 405.5 823.94C408.8 824.52 419.37 825.89 429 826.99C438.62 828.08 450.89 828.98 456.25 828.99L466 829C466 583.32 465.8 512 465.56 512C465.32 512 463.57 514.59 461.68 517.75Z" />
	</g>
</svg>