<svg xmlns="http://www.w3.org/2000/svg" width="344.239" height="349.42" viewBox="0 0 344.239 349.42">
  <g id="settings_solid" data-name="settings solid" transform="translate(-3.762)">
    <g id="settings" transform="translate(3.762)">
      <path id="Tracé_261" data-name="Tracé 261" d="M304.706,193.147c0-5.268,1.756-10.535,1.756-17.559s0-12.291-1.756-17.559l36.873-29.85c3.512-3.512,3.512-7.024,1.756-10.535L308.218,56.188c-1.756-1.756-5.267-3.512-10.535-1.756l-43.9,17.559c-8.779-7.024-19.315-12.291-29.85-17.559L216.912,8.779C218.668,3.512,213.4,0,209.889,0H139.654c-3.512,0-8.779,3.512-8.779,7.024l-7.024,47.409C113.316,57.944,104.536,64.967,94,71.991L51.86,54.432c-5.268-1.756-8.779,0-12.292,3.512L4.45,119.4c-1.756,1.756,0,7.024,3.512,10.535l36.873,28.094c0,5.268-1.756,10.535-1.756,17.559s0,12.291,1.756,17.559L7.962,223c-3.512,3.512-3.512,7.024-1.756,10.536l35.118,61.456c1.756,1.756,5.267,3.512,10.535,1.756l43.9-17.559c8.779,7.024,19.315,12.291,29.85,17.559L132.63,342.4c0,3.512,3.512,7.024,8.779,7.024h70.235c3.512,0,8.779-3.512,8.779-7.024l7.024-45.653c10.535-5.268,21.071-10.535,29.85-17.559l43.9,17.559c3.512,1.756,8.779,0,10.536-3.512l35.118-61.456c1.756-3.512,1.756-8.779-1.757-10.535Zm-129.935,43.9c-33.362,0-61.456-28.094-61.456-61.456s28.094-61.456,61.456-61.456,61.456,28.094,61.456,61.456S208.133,237.044,174.771,237.044Z" transform="translate(-3.762)" fill="#fff"/>
    </g>
  </g>
</svg>
