<svg xmlns="http://www.w3.org/2000/svg" width="2100.006" height="584.145" viewBox="0 0 2100.006 584.145">
  <g id="logo" transform="translate(-260.907 -399.075)">
    <g id="Groupe_552" data-name="Groupe 552">
      <g id="Background" transform="translate(260.898 590.916) rotate(-30)">
        <path id="Path_0" data-name="Path 0" d="M208.3.558c-2.272.233-6.861.762-10.2,1.175S189.08,3.025,185.478,3.69s-10.05,2.073-14.323,3.141S160.871,9.55,157.8,10.507s-9.191,3.151-13.595,4.884-11.4,4.782-15.537,6.773-9.929,4.957-12.867,6.594-7.744,4.506-10.682,6.38-7.2,4.715-9.468,6.322-6.205,4.559-8.74,6.564-7.016,5.758-9.953,8.351-8.307,7.739-11.929,11.434-8.118,8.468-9.987,10.6-5.122,6.069-7.234,8.74-6.258,8.458-9.211,12.867-6.807,10.521-8.565,13.595-4.462,8.094-6,11.167-3.559,7.332-4.491,9.468-2.724,6.506-4,9.711-3.3,8.885-4.52,12.624-2.865,9.308-3.661,12.381-2.117,8.861-2.933,12.867S2.51,192.5,1.971,196.64.772,207.006.5,210.477.005,221.266.01,226.743.345,240.41.748,244.95,1.923,256.263,2.467,260s1.724,10.182,2.622,14.323S7.3,283.924,8,286.463s2.054,7.016,3.015,9.953,2.6,7.633,3.656,10.439,3.02,7.608,4.375,10.682,3.651,7.987,5.117,10.924,3.976,7.633,5.584,10.439,5.151,8.482,7.88,12.624,7,10.148,9.482,13.352,5.923,7.463,7.642,9.468,6.22,6.783,10,10.619,9.274,9.089,12.211,11.667,7.307,6.229,9.711,8.108,6.336,4.836,8.74,6.574,6.555,4.549,9.225,6.249,6.71,4.166,8.982,5.477,7.132,3.9,10.8,5.739,9.681,4.632,13.352,6.205,10.609,4.2,15.416,5.846,11.58,3.739,15.051,4.651,9.589,2.316,13.595,3.112,9.575,1.777,12.381,2.18,8.482,1.068,12.624,1.481,10.2.743,13.473.748h5.948V424.354c-5.079,0-10.818-.335-16.023-.753s-12.638-1.3-16.508-1.962-10.536-2.059-14.809-3.1-11.7-3.253-16.508-4.9-11.036-3.972-13.838-5.171-8.269-3.782-12.138-5.744-9.992-5.38-13.595-7.6-8.958-5.758-11.9-7.861-7.307-5.414-9.711-7.356-6.773-5.729-9.711-8.429-7.6-7.361-10.361-10.366-7.035-7.977-9.5-11.046-5.788-7.443-7.38-9.711-4.117-6.093-5.608-8.5-3.588-5.9-4.656-7.768-3.268-6.021-4.88-9.225-3.52-7.137-4.234-8.74-2.068-4.88-3.005-7.283-2.345-6.229-3.127-8.5-2.156-6.749-3.054-9.953S33.647,272.6,33.1,270.2s-1.432-6.885-1.966-9.953-1.2-7.55-1.486-9.953-.738-7.21-1.005-10.682-.481-9.589-.481-13.595.325-10.89.714-15.294.942-9.652,1.224-11.653.85-5.5,1.262-7.768,1.194-6.093,1.738-8.5,1.724-6.992,2.622-10.2,2.267-7.686,3.049-9.953,2.355-6.53,3.5-9.468,4.4-9.929,7.225-15.537,6.657-12.6,8.511-15.537,4.676-7.2,6.278-9.468,4.918-6.642,7.37-9.711,6.351-7.662,8.662-10.2,5.773-6.1,7.7-7.914,5.69-5.21,8.361-7.55,6.71-5.676,8.982-7.424,6.53-4.821,9.468-6.827,7.633-5.03,10.439-6.715,8.7-4.836,13.109-7,11.4-5.278,15.537-6.919,10.8-3.962,14.809-5.151,10.23-2.84,13.838-3.661,10.376-2.034,15.051-2.695,11.556-1.437,15.294-1.719,8.273-.515,10.075-.515h3.277V0C215.537.1,210.565.32,208.3.558Z" transform="translate(0)" fill="#28a601"/>
        <path id="Path_1" data-name="Path 1" d="M241.773,59.549c-2.937.228-9.274.971-14.08,1.651S216,63.108,212.4,63.928s-9.832,2.466-13.838,3.661-10.672,3.51-14.809,5.151-11.133,4.753-15.537,6.919-10.308,5.317-13.109,7-7.5,4.7-10.439,6.715-7.2,5.079-9.468,6.827-6.312,5.088-8.982,7.424-6.433,5.734-8.361,7.55-5.389,5.375-7.7,7.914-6.205,7.123-8.662,10.2-5.768,7.438-7.37,9.711-4.428,6.53-6.278,9.468S82.165,162.394,79.334,168s-6.079,12.6-7.225,15.537-2.719,7.2-3.5,9.468-2.151,6.749-3.049,9.953-2.073,7.793-2.622,10.2-1.325,6.225-1.738,8.5-.981,5.763-1.262,7.768-.835,7.244-1.224,11.653S58,252.363,58,256.368s.214,10.123.481,13.595.719,8.278,1.005,10.682.952,6.88,1.486,9.953,1.418,7.55,1.966,9.953,1.724,6.992,2.622,10.2,2.272,7.681,3.054,9.953,2.19,6.093,3.127,8.5,2.292,5.681,3.005,7.283,2.617,5.535,4.234,8.74,3.807,7.356,4.88,9.225,3.166,5.365,4.656,7.768,4.015,6.224,5.608,8.5,4.914,6.637,7.38,9.711,6.739,8.04,9.5,11.046,7.424,7.671,10.361,10.366,7.307,6.492,9.711,8.429,6.773,5.249,9.711,7.356,8.288,5.642,11.9,7.861,9.72,5.642,13.595,7.6,9.332,4.545,12.138,5.744,9.031,3.525,13.838,5.171,12.235,3.85,16.508,4.9,10.934,2.442,14.809,3.1,11.3,1.544,16.508,1.962,10.944.757,12.745.757l3.277,0V432.859a160.815,160.815,0,0,1-17.965-.976c-4.676-.534-9.808-1.2-11.41-1.481s-5.317-1.063-8.254-1.738-7.963-2-11.167-2.942-8.778-2.874-12.381-4.292-8.851-3.646-11.653-4.948a40.276,40.276,0,0,1-5.443-2.826c-.189-.253,4.525-8.982,10.478-19.4s22.8-39.367,37.42-64.333,27.442-46.761,28.481-48.432l1.894-3.035V237.675c-60.521-106.3-78.229-137.493-78.4-137.891-.233-.558,1.326-1.5,6.637-3.991,3.821-1.792,10.327-4.491,14.469-6s10.91-3.588,15.051-4.632,9.817-2.321,12.624-2.845,8.482-1.292,12.624-1.7,9.657-.743,12.26-.743l4.734,0V59C249.134,59.107,244.711,59.32,241.773,59.549Z" transform="translate(-29.834 -30.354)" fill="#e1f3be"/>
        <path id="Path_2" data-name="Path 2" d="M263.991,102.791c-3.607.374-8.851,1.112-11.653,1.636s-8.487,1.811-12.624,2.855-10.915,3.127-15.051,4.632-10.648,4.21-14.469,6c-5.312,2.5-6.87,3.433-6.637,3.991.17.4,17.693,31.317,38.944,68.7s38.823,68.193,39.051,68.46.418-34.371.413-78.292L281.956,102C273.114,102.087,267.594,102.418,263.991,102.791Zm-82.074,33.516c-3.331,2.321-8.565,6.3-11.633,8.851s-8.317,7.366-11.653,10.716-7.948,8.385-10.24,11.187-5.588,7.064-7.322,9.468-4.53,6.555-6.22,9.225-4.418,7.365-6.069,10.439-4.035,7.875-5.312,10.682-3.253,7.608-4.4,10.682-2.753,7.769-3.578,10.439-2.059,7.259-2.753,10.2-1.685,7.851-2.2,10.924-1.267,9.079-1.656,13.352-.665,7.8-.607,7.827,36.376.306,80.7.6,80.642.49,80.7.427-18.154-31.254-40.454-69.3-40.7-69.358-40.9-69.562S185.243,133.982,181.917,136.308Zm-2.165,153.369c-38.988.32-70.941.612-71.009.646a20.168,20.168,0,0,0-.117,3.1c0,1.67.218,5,.481,7.4s.821,6.555,1.238,9.225,1.316,7.365,2,10.439,2.083,8.424,3.117,11.9,2.991,9.152,4.345,12.624,4.074,9.589,6.04,13.595,5.3,10.123,7.409,13.595,5.55,8.715,7.647,11.653,5.428,7.307,7.409,9.711,6.258,7.074,9.507,10.376,8.317,8.021,11.255,10.483,7.744,6.21,10.682,8.332,6,4.248,6.8,4.734c1.209.733,1.549.772,2.01.228.3-.359,18.712-31.676,40.916-69.6s40.362-69,40.352-69.067-4.326-.087-9.6-.039S218.74,289.357,179.751,289.677Zm100.107,14.182c-.918,1.534-13.639,23.218-28.268,48.189s-31.472,53.918-37.43,64.333-10.667,19.144-10.478,19.4a40.275,40.275,0,0,0,5.443,2.826c2.8,1.3,8.045,3.525,11.653,4.948s9.177,3.35,12.381,4.292,8.23,2.263,11.167,2.942,6.652,1.461,8.254,1.738,6.734.947,11.41,1.481,10.628.966,13.231.971l4.734,0c0-119.285-.1-153.913-.214-153.913A16.669,16.669,0,0,0,279.858,303.859Z" transform="translate(-55.693 -52.476)" fill="#a7e232"/>
      </g>
      <g id="Groupe_147" data-name="Groupe 147" transform="translate(799.57 377.5)">
        <path id="Tracé_1" data-name="Tracé 1" d="M1-13.5V377.636H276.244V301.726H83.863V-13.5ZM417.632,377.636V116.879H342.3V377.636ZM346.358,66.465c8.692,8.692,20.281,12.748,33.609,12.748S404.3,75.157,413,66.465s13.328-20.281,13.328-33.609S421.688,8.519,413-.172,393.294-13.5,379.967-13.5,355.05-8.864,346.358-.172s-12.748,19.7-12.748,33.029S337.666,57.774,346.358,66.465Zm221.354,311.17V226.976c0-26.076,19.122-46.936,44.039-46.936s43.459,19.7,43.459,46.936v150.66h75.33V226.976c0-26.076,19.122-46.936,44.039-46.936s43.459,19.7,43.459,46.936v150.66h75.33V207.274c0-27.235-9.851-50.413-28.973-68.956S821.515,110.5,793.122,110.5c-35.347,0-62,13.328-78.807,39.983C695.773,123.832,669.7,110.5,635.509,110.5c-28.394,0-50.993,9.851-67.8,30.132V116.879h-75.33V377.636Zm403.3-32.45c26.655,26.076,59.684,38.824,99.667,38.824s73.012-12.748,99.667-38.824,39.983-59.1,39.983-97.929-13.328-71.853-39.983-97.929-59.684-39.4-99.667-39.4-73.012,13.328-99.667,39.4c-26.076,26.076-39.4,59.1-39.4,97.929S944.94,319.11,971.016,345.186Zm99.667-35.347c-34.188,0-60.843-27.235-60.843-62.582s26.655-63.161,60.843-63.161c34.767,0,61.423,27.814,61.423,63.161S1105.451,309.839,1070.683,309.839Zm177.894,67.8h75.33V229.873c0-28.394,20.861-49.834,48.1-49.834s47.516,21.44,47.516,49.834V377.636h75.33V210.172c0-28.394-9.851-52.151-28.973-71.274s-42.3-28.973-70.694-28.973q-44.329,0-71.274,33.029V116.879h-75.33Z" transform="translate(66 124)" fill="#28a601"/>
        <path id="Intersection_4" data-name="Intersection 4" d="M0,43.735V18.786L75.332,0V43.735Z" transform="translate(408.309 457.89)" fill="#a7e232"/>
        <path id="Intersection_3" data-name="Intersection 3" d="M325.66,169.476V20.185L400.992,0V169.476Zm-162.816,0V63.812L238.15,43.633V169.476ZM0,169.476v-62.03L75.332,87.261v82.215Z" transform="translate(558.379 332.163)" fill="#a7e232" stroke="rgba(0,0,0,0)" stroke-miterlimit="10" stroke-width="1"/>
        <path id="Intersection_2" data-name="Intersection 2" d="M170.927,267.719V119.948c0-28.4-20.261-49.83-47.51-49.83-27.223,0-48.084,21.433-48.084,49.83V267.719H0V6.962H75.332V33.037Q102.283-.014,146.6,0c28.4,0,51.577,9.856,70.692,28.969s28.97,42.869,28.97,71.265V267.719Z" transform="translate(1314.584 233.929)" fill="#a7e232" stroke="rgba(0,0,0,0)" stroke-miterlimit="10" stroke-width="1"/>
        <path id="Intersection_1" data-name="Intersection 1" d="M39.426,207.235C13.35,181.158,0,148.12,0,109.294A143.522,143.522,0,0,1,8.955,58.068L225.665,0a145.64,145.64,0,0,1,13.084,11.38c26.65,26.076,39.974,59.088,39.974,97.915s-13.324,71.864-39.974,97.94-59.687,38.826-99.661,38.826C99.087,246.061,66.075,233.31,39.426,207.235Zm38.8-97.94c0,35.358,26.676,62.581,60.861,62.581,34.758,0,61.408-27.223,61.408-62.581,0-35.333-26.65-63.156-61.408-63.156C104.9,46.138,78.226,73.961,78.226,109.294Z" transform="translate(997.603 261.959)" fill="#a7e232"/>
      </g>
      <path id="Tracé_294" data-name="Tracé 294" d="M-11808.775,2719.575h16.159" transform="translate(12261 -2320)" fill="none" stroke="#3e3e3e" stroke-width="1"/>
    </g>
  </g>
</svg>
